<svg width="360" height="386" viewBox="0 0 360 386" fill="none" xmlns="http://www.w3.org/2000/svg">
<path d="M180.5 75V7V0L360 96.5C338.216 111.203 331.662 124.243 330 156L180.5 75Z" fill="#171A1F"/>
<path d="M59.3491 155.5L0 187.14L170 268.5V207.229L59.3491 155.5Z" fill="#171A1F"/>
<path d="M360 204.5L181 106.5V185L300.835 245.5L360 204.5Z" fill="#171A1F"/>
<path d="M170 0.5L0 105.861L59.5 146.5L170 75.7577V0.5Z" fill="#171A1F"/>
<path d="M179.75 315L300.583 256L360 285L179.75 385.5V315Z" fill="#171A1F"/>
<path d="M170.264 385.5V315L20.4716 227L15.4785 263.5L0 285L170.264 385.5Z" fill="#171A1F"/>
<path d="M0 174.5V114.5L49.9307 151.5L0 174.5Z" fill="#171A1F"/>
<path d="M303 250.214L360 216.5V275.5L303 250.214Z" fill="#171A1F"/>
</svg>
